{"title":"The Six Million Dollar Man (1973).mkv","uid":9618341,"size":1039105049,"categoryP":"video","categoryS":"movies","magnet":"?xt=urn:btih:2b3e520b92be3dea3179844feb52e1c63aa90806&amp;dn=The+Six+Million+Dollar+Man+%281973%29.mkv&amp;tr=udp%3A%2F%2Ftracker.openbittorrent.com%3A80&amp;tr=udp%3A%2F%2Fopen.demonii.com%3A1337&amp;tr=udp%3A%2F%2Ftracker.coppersurfer.tk%3A6969&amp;tr=udp%3A%2F%2Fexodus.desync.com%3A6969","seeders":0,"leechers":2,"uploader":"cgculpepper","files":-1,"time":1392455717,"description":"\n\n\nThe Six Million Dollar Man (1973).mkv\n-ABC Movie of the Week, March 7 1973 \t\n &lt;a href=&quot;\nhttp://www.imdb.com/title/tt0070700/&quot; rel=&quot;nofollow&quot; target=&quot;_NEW&quot;&gt;\nhttp://www.imdb.com/title/tt0070700/&lt;/a&gt;\n\n\n990 MB (1,039,105,049 bytes)\n01:14:12\n720x540\n\nVideo: MPEG4 Video (H264) 720x540 23.976fps [Video]\nAudio: Dolby AC3 48000Hz stereo 192kbps [Audio]\nSubtitle: UTF-8 [Subtitle]\n\n\nscreens: &lt;a href=&quot;\nhttp://s10.postimg.org/8i91qy2h5/1_40.jpg&quot; rel=&quot;nofollow&quot; target=&quot;_NEW&quot;&gt;\nhttp://s10.postimg.org/8i91qy2h5/1_40.jpg&lt;/a&gt; &lt;a href=&quot;\nhttp://s10.postimg.org/c1vhnnymh/3_28.jpg&quot; rel=&quot;nofollow&quot; target=&quot;_NEW&quot;&gt;\nhttp://s10.postimg.org/c1vhnnymh/3_28.jpg&lt;/a&gt; &lt;a href=&quot;\nhttp://s10.postimg.org/qav45qd55/4_33.jpg&quot; rel=&quot;nofollow&quot; target=&quot;_NEW&quot;&gt;\nhttp://s10.postimg.org/qav45qd55/4_33.jpg&lt;/a&gt; &lt;a href=&quot;\nhttp://s10.postimg.org/r2xs4xhc9/5_25.jpg&quot; rel=&quot;nofollow&quot; target=&quot;_NEW&quot;&gt;\nhttp://s10.postimg.org/r2xs4xhc9/5_25.jpg&lt;/a&gt;\n &lt;a href=&quot;\nhttp://s10.postimg.org/abcgm6h3d/6_10.jpg&quot; rel=&quot;nofollow&quot; target=&quot;_NEW&quot;&gt;\nhttp://s10.postimg.org/abcgm6h3d/6_10.jpg&lt;/a&gt; &lt;a href=&quot;\nhttp://s10.postimg.org/64rm6uhhl/8_39.jpg&quot; rel=&quot;nofollow&quot; target=&quot;_NEW&quot;&gt;\nhttp://s10.postimg.org/64rm6uhhl/8_39.jpg&lt;/a&gt; &lt;a href=&quot;\nhttp://s10.postimg.org/3pzqmf18p/30_08.jpg&quot; rel=&quot;nofollow&quot; target=&quot;_NEW&quot;&gt;\nhttp://s10.postimg.org/3pzqmf18p/30_08.jpg&lt;/a&gt; &lt;a href=&quot;\nhttp://s10.postimg.org/k29sc5fk9/34_41.jpg&quot; rel=&quot;nofollow&quot; target=&quot;_NEW&quot;&gt;\nhttp://s10.postimg.org/k29sc5fk9/34_41.jpg&lt;/a&gt;\n &lt;a href=&quot;\nhttp://s10.postimg.org/lilauaih5/42_05.jpg&quot; rel=&quot;nofollow&quot; target=&quot;_NEW&quot;&gt;\nhttp://s10.postimg.org/lilauaih5/42_05.jpg&lt;/a&gt; &lt;a href=&quot;\nhttp://s10.postimg.org/hnhwrpzbd/63_05.jpg&quot; rel=&quot;nofollow&quot; target=&quot;_NEW&quot;&gt;\nhttp://s10.postimg.org/hnhwrpzbd/63_05.jpg&lt;/a&gt; &lt;a href=&quot;\nhttp://s10.postimg.org/tfadg9jbd/66_16.jpg&quot; rel=&quot;nofollow&quot; target=&quot;_NEW&quot;&gt;\nhttp://s10.postimg.org/tfadg9jbd/66_16.jpg&lt;/a&gt; &lt;a href=&quot;\nhttp://s10.postimg.org/6cf93csg9/69_37.jpg&quot; rel=&quot;nofollow&quot; target=&quot;_NEW&quot;&gt;\nhttp://s10.postimg.org/6cf93csg9/69_37.jpg&lt;/a&gt;\n\nscreen gallery: &lt;a href=&quot;\nhttp://postimg.org/gallery/chew6sna/&quot; rel=&quot;nofollow&quot; target=&quot;_NEW&quot;&gt;\nhttp://postimg.org/gallery/chew6sna/&lt;/a&gt;\n\n\n\nFormat                         : Matroska\nFormat version                 : Version 4 / Version 2\nFile size                      : 991 MiB\nDuration                       : 1h 14mn\nOverall bit rate               : 1 867 Kbps\nEncoded date                   : UTC 2014-02-15 06:45:23\nWriting application            : mkvmerge v6.5.0 ('Isn't she lovely') built on \n\nOct 20 2013 12:50:05\nWriting library                : libebml v1.3.0 + libmatroska v1.4.1\nAttachment                     : Yes\n\nVideo\nID                             : 1\nFormat                         : AVC\nFormat/Info                    : Advanced Video Codec\nFormat profile                 : &lt;a class=&quot;__cf_email__&quot; href=&quot;/cdn-cgi/l/email-protection&quot; data-cfemail=&quot;377f5e505f777b031906&quot;&gt;[email&amp;#160;protected]&lt;/a&gt;&lt;script cf-hash='f9e31' type=&quot;text/javascript&quot;&gt;\n/* &lt;![CDATA[ */!function(){try{var t=&quot;currentScript&quot;in document?document.currentScript:function(){for(var t=document.getElementsByTagName(&quot;script&quot;),e=t.length;e--;)if(t[e].getAttribute(&quot;cf-hash&quot;))return t[e]}();if(t&amp;&amp;t.previousSibling){var e,r,n,i,c=t.previousSibling,a=c.getAttribute(&quot;data-cfemail&quot;);if(a){for(e=&quot;&quot;,r=parseInt(a.substr(0,2),16),n=2;a.length-n;n+=2)i=parseInt(a.substr(n,2),16)^r,e+=String.fromCharCode(i);e=document.createTextNode(e),c.parentNode.replaceChild(e,c)}}}catch(u){}}();/* ]]&gt; */&lt;/script&gt;\nFormat settings, CABAC         : Yes\nFormat settings, ReFrames      : 10 frames\nCodec ID                       : V_MPEG4/ISO/AVC\nDuration                       : 1h 14mn\nBit rate                       : 1 638 Kbps\nWidth                          : 720 pixels\nHeight                         : 540 pixels\nDisplay aspect ratio           : 4:3\nFrame rate mode                : Constant\nFrame rate                     : 23.976 fps\nColor space                    : YUV\nChroma subsampling             : 4:2:0\nBit depth                      : 8 bits\nScan type                      : Progressive\nBits/(Pixel*Frame)             : 0.176\nStream size                    : 869 MiB (88%)\nTitle                          : source - sasha20072007 @\nWriting library                : x264 core 120 r2164 da19765\nEncoding settings              : cabac=1 / ref=10 / deblock=1:-2:-2 / \n\nanalyse=0x3:0x133 / me=umh / subme=11 / psy=1 / psy_rd=1.00:0.20 / mixed_ref=1 / \n\nme_range=24 / chroma_me=1 / trellis=2 / 8x8dct=1 / cqm=0 / deadzone=21,11 / \n\nfast_pskip=1 / chroma_qp_offset=-3 / threads=12 / sliced_threads=0 / nr=0 / \n\ndecimate=1 / interlaced=0 / bluray_compat=0 / constrained_intra=0 / bframes=10 / \n\nb_pyramid=2 / b_adapt=2 / b_bias=0 / direct=3 / weightb=1 / open_gop=0 / \n\nweightp=2 / keyint=220 / keyint_min=22 / scenecut=40 / intra_refresh=0 / \n\nrc_lookahead=60 / rc=crf / mbtree=1 / crf=21.0 / qcomp=0.60 / qpmin=0 / qpmax=69 \n\n/ qpstep=4 / vbv_maxrate=17500 / vbv_bufsize=14000 / crf_max=0.0 / nal_hrd=none \n\n/ ip_ratio=1.27 / aq=1:1.00\nDefault                        : Yes\nForced                         : No\n\nAudio\nID                             : 2\nFormat                         : AC-3\nFormat/Info                    : Audio Coding 3\nMode extension                 : CM (complete main)\nFormat settings, Endianness    : Big\nCodec ID                       : A_AC3\nDuration                       : 1h 14mn\nBit rate mode                  : Constant\nBit rate                       : 192 Kbps\nChannel count                  : 2 channels\nChannel positions              : Front: L R\nSampling rate                  : 48.0 KHz\nBit depth                      : 16 bits\nCompression mode               : Lossy\nStream size                    : 102 MiB (10%)\nLanguage                       : English\nDefault                        : Yes\nForced                         : No\n\nText #1\nID                             : 3\nFormat                         : UTF-8\nCodec ID                       : S_TEXT/UTF8\nCodec ID/Info                  : UTF-8 Plain Text\nTitle                          : srt\nLanguage                       : English\nDefault                        : Yes\nForced                         : No\n\nText #2\nID                             : 4\nFormat                         : VobSub\nMuxing mode                    : zlib\nCodec ID                       : S_VOBSUB\nCodec ID/Info                  : The same subtitle format used on DVDs\nTitle                          : VobSub\nLanguage                       : English\nDefault                        : No\nForced                         : No\n\nMenu\n00:00:00.000                   : :Chapter 01\n00:12:40.901                   : :Chapter 02\n00:24:25.735                   : :Chapter 03\n00:37:26.536                   : :Chapter 04\n00:48:49.536                   : :Chapter 05\n01:05:20.970                   : :Chapter 06\n01:13:37.304                   : :Chapter 07\n01:14:07.738                   : :Chapter 08\n\n","torrent":{"xt":"urn:btih:2b3e520b92be3dea3179844feb52e1c63aa90806","amp;dn":"The+Six+Million+Dollar+Man+%281973%29.mkv","amp;tr":["udp%3A%2F%2Ftracker.openbittorrent.com%3A80","udp%3A%2F%2Fopen.demonii.com%3A1337","udp%3A%2F%2Ftracker.coppersurfer.tk%3A6969","udp%3A%2F%2Fexodus.desync.com%3A6969"],"infoHash":"2b3e520b92be3dea3179844feb52e1c63aa90806","infoHashBuffer":{"type":"Buffer","data":[43,62,82,11,146,190,61,234,49,121,132,79,235,82,225,198,58,169,8,6]},"announce":[],"urlList":[]}}